<svg id="Layer_1" data-name="Layer 1" xmlns="http://www.w3.org/2000/svg" viewBox="0 0 313.15 345.55"><defs><style>.cls-1,.cls-2{fill:#231f20;}.cls-2{stroke:#fff;stroke-miterlimit:10;stroke-width:7px;}</style></defs><path class="cls-1" d="M219.26,6.34A20.3,20.3,0,0,0,204.45,0H21.15A20.31,20.31,0,0,0,6.34,6.34,20.31,20.31,0,0,0,0,21.15V261.2A20.3,20.3,0,0,0,6.34,276a20.31,20.31,0,0,0,14.81,6.34H47.92C46.1,275.72,46,268.84,46,262a4.26,4.26,0,0,1,.08-.8H21.15v-240H52.88v98L86.71,98.35l33.84,20.79v-98h83.9v119.5a76.16,76.16,0,0,1,10.75-.71,68.9,68.9,0,0,1,10.4.71V21.15A20.35,20.35,0,0,0,219.26,6.34Z"/><path class="cls-1" d="M102.58,261.2H40.69c2.84,6.8,3.12,13.9,1.83,21.15H112.8a67.05,67.05,0,0,1-6.17-10.22A46.36,46.36,0,0,1,102.58,261.2Z"/><path class="cls-1" d="M285.22,180.22q-27.93-27.93-68.7-27.93t-68.7,27.93q-27.93,27.93-27.93,68.7t27.93,68.7q27.93,27.93,68.7,27.93t68.7-27.93q27.93-27.93,27.93-68.7T285.22,180.22Z"/><line id="plus-line2" class="cls-2" x1="219.63" y1="199.33" x2="219.63" y2="298.51"/><line id="plus-line1" class="cls-2" x1="170.04" y1="248.92" x2="269.22" y2="248.92"/></svg>